English Review: http://www.imdb.com/title/tt1596724/

Preview:

+++++++++++++++++++++++++++++++++++++++++++++++++++++

Featured in this episode:
Albert Maysles
Timothy Greenfield-Sanders
Sylvia Plachy
Gregory Crewdson
Andrew Moore

"Eu nunca soube o que era, até que li um ensaio que minha esposa psicoterapeuta tinha sobre conectar-se com pacientes. Ele diz que você deve observar. Primeiro encontro: seus olhos, os olhos deles, observar. E você desenvolve isso com empatia. Então eu pensei, certo, observar e empatia. Esta é a minha técnica." Albert Maysles

"Close UP: Photographers at Work" é um documentário da cineasta Rebecca Dreyfus que joga um olhar interessante e delicado sobre um punhado de aclamados fotógrafos. O mestre entre eles é Albert Maysles, um fotógrafo que Jean Luc Godard já chamou de "o melhor cameraman americano". No mundo do cinema, Maysles é conhecido principalmente pela direção de 2 documentários, "Salesman" e "Gimme Shelter". Outro documentário anterior oferece um vislumbre dos métodos praticados pelos hospitais psiquiátricos soviéticos. Mas são as fotos de Maysles que Close Up celebra e que, sejam de figuras conhecidas (Brando, Capote, Dali Lama, Castro, etc) ou simples retratos de passageiros dormindo, geralmente revelam uma rara compaixão. Suas fotos clássicas são misteriosamente tranquilas, silenciosas e imóveis. Convidam o olhar a estudar detalhes, as dobras da pele, para sentir ou extrair os pensamentos dos outros enquanto palpitam, quase sem saber, atrás das pálpebras. Maysles tem um jeito para capturar detalhes; pequenas carícias que iluminam o caráter.

Timothy Greenfield-Sanders é outro fotógrafo apresentado por Dreyfus, provavelmente o menos interessante do grupo. Ele captura grandes panoramas, adora fotos de celebridades e seu trabalho tornou-se insosso e vendável. É uma estética Vanity Fair, Levis, de mega corporação, de "capa", tablóide. Existe uma pretenção em seu trabalho, um desejo de revelar um tipo de humanidade nu e desguarnecida. Ele tenta banalizar a carne, mas o efeito é sempre o oposto, graças principalmente ao modo como suas fotos são utilizadas.

O trabalho de Sylvia Plachy também é mostrado. Ela é bem húngara, bem pós guerra, fã do grotesco, da cicatriz, do distorcido. Com seus ângulos obliquos, imagens macabras, justaposições bizarras e sexualidade exposta, ela está distante de Alan Moore que também é mostrado por Dreyfus. Moore fotografa arquitetura, prédios, grandes espaços, prefere grandes panorâmicas, adora a relação de desarranjo com o espaço, a textura dos tecidos, metais e materiais, mas também tem uma queda por camadas o que às vezes dá uma estranha qualidade ao seu trabalho.

Entretanto, o documentário de Dreyfus está menos interessado nos fotógrafos do que no seu método de trabalho e processo de criação. Rapidamente percebemos que esses processos entregam a forma e o conteúdo no trabalho dos artistas.


Video
ID                             : 1
Format                         : AVC
Format/Info                    : Advanced Video Codec
Format profile                 : High@L3.2
Format settings, CABAC         : Yes
Format settings, ReFrames      : 4 frames
Codec ID                       : V_MPEG4/ISO/AVC
Duration                       : 41mn 55s
Bit rate                       : 4 500 Kbps
Width                          : 1 280 pixels
Height                         : 720 pixels
Display aspect ratio           : 16:9
Frame rate mode                : Constant
Frame rate                     : 60.000 fps
Color space                    : YUV
Chroma subsampling             : 4:2:0
Bit depth                      : 8 bits
Scan type                      : Progressive
Bits/(Pixel*Frame)             : 0.081
Stream size                    : 1.29 GiB (90%)

Audio
ID                             : 2
Format                         : AC-3
Codec ID                       : A_AC3
Bit rate                       : 384 Kbps
Channel(s)                     : 2 channels
Channel positions              : Front: L R
Sampling rate                  : 48.0 KHz
Stream size                    : 115 MiB (8%)
Language                       : English
Default                        : Yes

Subtitles/legendas: Portuguese (hardsubed)